<svg height="512" stroke-width="0.2" stroke="white" viewBox="0 0 61 60" width="512" xmlns="http://www.w3.org/2000/svg"><g id="Page-1" fill="none" fill-rule="evenodd"><g id="027---Health" fill="white" fi0ll-rule="nonzero" transform="translate(-1)"><path id="Shape" d="m16 60h9c1.0999001.0000198 1.9934006-.8881197 2-1.988v-.279c.0902359-2.5121627-.0036821-5.0275608-.281-7.526-.4519089-2.2768294-1.6966976-4.3195868-3.513-5.765-.143-.1-1.435-.962-6.888-4.58l-5.418-3.598c-.8280936-.5408995-1.85257842-.6890839-2.8-.405-.209-1.982-.319-2.988-.787-7.294l-.316-2.893c-.10142524-.8493949-.55590958-1.616791-1.252-2.114-.68387629-.4940601-1.54627283-.6723615-2.37-.49-1.42146018.3414466-2.41118987 1.6295538-2.375 3.091.065 7.748.066 7.849.1 10.185l.04 3.769c-.00961696 1.7116912.42780664 3.3962374 1.269 4.887.83391099 1.3816977 1.93180678 2.5856113 3.231 3.543l.669.566c2.757 2.369 5.461 4.683 7.342 6.28.2223405.188899.3500399.4662517.349.758v1.853c0 1.1045695.8954305 2 2 2zm-8.39-12.409-.682-.579c-1.11324578-.8056083-2.05687853-1.8226385-2.777-2.993-.67344156-1.1996247-1.02193877-2.5543171-1.011-3.93l-.04-3.769c-.029-2.335-.03-2.436-.1-10.177-.0262417-.5104651.29949773-.9728582.789-1.12.07302133-.0152217.14740905-.0229285.222-.023.20359586.0005015.40190542.0648559.567.184.23585076.1680322.39096157.4267918.428.714l.314 2.884c.554 5.089.606 5.565.914 8.5-.90477362 1.4627403-.55321703 3.3731672.813 4.418l10.477 7.932c.2849193.2156098.6632221.2628388.9924053.1238964.3291832-.1389425.5592361-.4429478.6035-.7975001.0442639-.3545522-.103986-.7057865-.3889053-.9213963l-10.473-7.937c-.57354694-.4443998-.69204016-1.263241-.268-1.852.04902767-.0503741.09229421-.1060504.129-.166.4596109-.4298455 1.15294778-.4913013 1.681-.149l5.419 3.6c4.568 3.031 6.654 4.415 6.779 4.5 1.4234228 1.1552693 2.4003172 2.7699912 2.763 4.567.2367506 2.367462.3165917 4.7479952.239 7.126v.274h-9v-1.853c.0014298-.8789556-.3840822-1.7139877-1.054-2.283-1.88-1.595-4.581-3.907-7.336-6.273z"/><path id="Shape" d="m58.634 23.067c-.8238705-.1819449-1.6862267-.003288-2.37.491-.6975565.5001892-1.1517852 1.2713977-1.251 2.124l-.213 1.938c-.559 5.121-.668 6.122-.893 8.246-.9464571-.288649-1.9722229-.142111-2.8.4l-5.607 3.721c-5.3 3.518-6.559 4.352-6.734 4.482-1.8003863 1.4392659-3.0329064 3.4696116-3.479 5.731-.2813946 2.5004797-.3773233 5.0183582-.287 7.533v.279c.0065994 1.0998803.9000999 1.9880198 2 1.988h9c1.1045695 0 2-.8954305 2-2v-1.853c-.0011295-.2913362.1257382-.5684708.347-.758 1.883-1.6 4.585-3.911 7.344-6.28l.673-.57c1.3008458-.9554453 2.400493-2.158057 3.236-3.539.841355-1.4913777 1.278456-3.1766985 1.268-4.889l.044-3.763c.029-2.34.03-2.436.1-10.189.036353-1.4627071-.9549701-2.7516773-2.378-3.092zm.277 13.257-.045 3.764c.0111132 1.3760212-.3373897 2.7310804-1.011 3.931-.7189051 1.1688628-1.6607991 2.1848308-2.772 2.99l-.687.582c-2.755 2.366-5.456 4.678-7.336 6.274-.6692784.5689753-1.0543849 1.4035556-1.053 2.282v1.853l-9 .005v-.278c-.0777149-2.3808029.0041349-4.7641379.245-7.134.3564315-1.7802815 1.3191037-3.3819079 2.724-4.532.163-.116 2.189-1.46 6.631-4.407l5.6-3.718c.2160706-.1433262.4697151-.2195239.729-.219.3628018.0004055.7107406.1441818.968.4.0348298.0518302.0743277.1003657.118.145.4246859.5863289.3064155 1.4040335-.267 1.846l-10.48 7.926c-.2849193.2156098-.4331692.5668441-.3889053.9213963.0442639.3545523.2743168.6585576.6035.7975.3291832.1389425.707486.0917135.9924053-.1238963l10.482-7.935c1.3688744-1.0437058 1.7184985-2.9577571.807-4.418.328-3.1.367-3.456 1.019-9.44l.21-1.929c.0347854-.2901465.1901483-.5522308.428-.722.2265615-.1661326.5142746-.2252817.788-.162.4899001.1467667.8161196.6092551.79 1.12-.066 7.746-.067 7.842-.095 10.181z"/><path id="Shape" d="m52 21c0-11.59797975-9.4020203-21-21-21s-21 9.40202025-21 21c0 11.5979797 9.4020203 21 21 21 11.592497-.0132259 20.9867741-9.407503 21-21zm-40 0c0-10.4934102 8.5065898-19 19-19s19 8.5065898 19 19-8.5065898 19-19 19c-10.4886126-.0115735-18.9884265-8.5113874-19-19z"/><path id="Shape" d="m35 33v-7c0-.5522847.4477153-1 1-1h7c1.6568542 0 3-1.3431458 3-3v-2c0-1.6568542-1.3431458-3-3-3h-7c-.5522847 0-1-.4477153-1-1v-7c0-1.65685425-1.3431458-3-3-3h-2c-1.6568542 0-3 1.34314575-3 3v7c0 .5522847-.4477153 1-1 1h-7c-1.6568542 0-3 1.3431458-3 3v2c0 1.6568542 1.3431458 3 3 3h7c.5522847 0 1 .4477153 1 1v7c0 1.6568542 1.3431458 3 3 3h2c1.6568542 0 3-1.3431458 3-3zm-6 0v-7c0-1.6568542-1.3431458-3-3-3h-7c-.5522847 0-1-.4477153-1-1v-2c0-.5522847.4477153-1 1-1h7c1.6568542 0 3-1.3431458 3-3v-7c0-.55228475.4477153-1 1-1h2c.5522847 0 1 .44771525 1 1v7c0 .7956495.3160705 1.5587112.8786797 2.1213203.5626091.5626092 1.3256708.8786797 2.1213203.8786797h7c.5522847 0 1 .4477153 1 1v2c0 .5522847-.4477153 1-1 1h-7c-1.6568542 0-3 1.3431458-3 3v7c0 .5522847-.4477153 1-1 1h-2c-.5522847 0-1-.4477153-1-1z"/></g></g></svg>