<svg width="512"  height="512" viewBox="0 0 512 512" fill="#8AA7C3" xmlns="http://www.w3.org/2000/svg">
<path d="M256 272C317.856 272 368 221.856 368 160C368 98.1441 317.856 48 256 48C194.144 48 144 98.1441 144 160C144 221.856 194.144 272 256 272Z" />
<path d="M335.52 272H176.48C142.418 272.042 109.763 285.592 85.6777 309.678C61.5922 333.763 48.0423 366.418 48 400.48V480C48 484.243 49.6857 488.313 52.6863 491.314C55.6869 494.314 59.7565 496 64 496H448C452.243 496 456.313 494.314 459.314 491.314C462.314 488.313 464 484.243 464 480V400.48C463.958 366.418 450.408 333.763 426.322 309.678C402.237 285.592 369.582 272.042 335.52 272V272Z" />
</svg>
