<svg enable-background="new 0 0 512 512" height="512" stroke="#ffff" stroke-width="8" fill="#ffff" viewBox="0 0 512 512" width="512" xmlns="http://www.w3.org/2000/svg"><g id="Layer_1" display="none"><g display="inline"><path d="m.25-.14h511.5v512.28h-511.5z"/><path d="m.25-.14 511.5 512.28"/><path d="m511.75-.14-511.5 512.28"/><path d="m128.13-.14h255.75v512.28h-255.75z"/><path d="m256-.14v512.28"/><path d="m.25 127.93h511.5v256.14h-511.5z"/><path d="m.25 256h511.5"/><ellipse cx="256" cy="256" rx="254.47" ry="254.85"/><path d="m75.7 75.42h360.61v361.16h-360.61z"/><ellipse cx="256" cy="256" rx="180.3" ry="180.58"/><ellipse cx="256" cy="256" rx="129.15" ry="129.35"/><ellipse cx="256" cy="256" rx="62.66" ry="62.97"/></g></g><g id="Layer_2"><g><path d="m345.93 95.78c-24.99 0-48.66 9.55-66.64 26.9-10.44 10.08-18.33 22.16-23.29 35.4-4.96-13.24-12.84-25.33-23.29-35.4-17.98-17.35-41.65-26.9-66.64-26.9-25.68 0-49.79 9.93-67.88 27.96-18.14 18.08-28.12 42.24-28.12 68.04 0 155.86 171.09 219.51 183.43 223.89.46.21.95.35 1.44.44.36.07.73.1 1.09.1.88 0 1.75-.2 2.56-.57 13.08-4.66 183.33-68.36 183.33-223.85 0-25.8-9.99-49.96-28.13-68.04-18.08-18.04-42.18-27.97-67.86-27.97zm-1.5 257.69c-39.17 31.01-79.24 46.92-88.43 50.34-9.19-3.42-49.27-19.33-88.43-50.34-56.73-44.91-85.49-99.31-85.49-161.69 0-46.32 37.68-84 84-84 45.33 0 82.2 35.46 83.93 80.72.12 3.22 2.77 5.77 6 5.77s5.87-2.55 6-5.77c1.73-45.27 38.6-80.72 83.93-80.72 46.32 0 84 37.68 84 84-.01 62.38-28.78 116.78-85.51 161.69z"/><path d="m392.22 249.68h-58.13l-12.15-32.12c-.86-2.28-3.02-3.81-5.45-3.88-2.45-.06-4.67 1.35-5.65 3.58l-43.74 99.49-45.38-118.68c-.86-2.24-2.97-3.76-5.37-3.85-2.42-.12-4.63 1.25-5.65 3.43l-24.64 52.03h-66.26c-3.31 0-6 2.69-6 6s2.69 6 6 6h70.05c2.32 0 4.43-1.34 5.42-3.43l20.26-42.77 45.58 119.21c.87 2.27 3.02 3.8 5.46 3.86h.15c2.37 0 4.53-1.4 5.49-3.58l43.71-99.43 8.43 22.27c.88 2.33 3.12 3.88 5.61 3.88h62.27c3.31 0 6-2.69 6-6-.01-3.33-2.7-6.01-6.01-6.01z"/></g></g></svg>