<svg width="30" height="30" viewBox="0 0 30 30" fill="none" xmlns="http://www.w3.org/2000/svg">
<g clip-path="url(#clip0_336_341)">
<path d="M9.66277 0.019043L8.90216 0.458203C7.72988 1.13502 6.89134 2.22779 6.54107 3.53525C6.19074 4.84277 6.3705 6.20842 7.04732 7.38065L10.5475 13.4431L13.9803 7.49725L9.66277 0.019043Z" fill="#058F94"/>
<path d="M29.1496 20.6012C28.314 19.1539 26.9626 18.118 25.3446 17.6845C23.7265 17.2508 22.0384 17.4724 20.591 18.3079C20.4988 18.3612 20.4078 18.4169 20.3184 18.4748L19.4417 16.9562L16.0088 22.9021L18.18 26.6627V26.6933L18.3123 26.8919C19.1491 28.3259 20.4941 29.3523 22.1026 29.7833C22.6438 29.9284 23.1927 30.0001 23.7381 30.0001C24.823 30.0001 25.8931 29.716 26.8562 29.1599C28.3036 28.3242 29.3394 26.973 29.773 25.3549C30.2066 23.7368 29.9852 22.0486 29.1496 20.6012ZM26.3074 24.4262C26.1225 25.1164 25.6798 25.6932 25.0611 26.0505C24.649 26.2884 24.1915 26.41 23.728 26.41C23.4956 26.41 23.2618 26.3795 23.0313 26.3177C22.3412 26.1328 21.7643 25.6901 21.4071 25.0714C21.0498 24.4527 20.9549 23.7318 21.1398 23.0416C21.3248 22.3514 21.7674 21.7746 22.3862 21.4173C23.0049 21.0601 23.7257 20.9652 24.416 21.1501C25.1061 21.3351 25.683 21.7777 26.0401 22.3965C26.3975 23.0152 26.4924 23.7361 26.3074 24.4262Z" fill="#058F94"/>
<path d="M23.4589 3.51621C23.1086 2.20869 22.27 1.11592 21.0978 0.43916L20.337 0L9.68171 18.4557C9.59229 18.3978 9.50136 18.3421 9.40907 18.2889C8.44585 17.7328 7.37598 17.4486 6.29106 17.4486C5.74579 17.4486 5.19677 17.5204 4.65554 17.6654C3.03747 18.0989 1.68612 19.1348 0.850573 20.5821C0.0148505 22.0295 -0.206575 23.7177 0.227019 25.3358C0.660554 26.9539 1.69643 28.3052 3.14376 29.1408C4.10704 29.6969 5.17673 29.981 6.26177 29.981C6.26182 29.981 6.26188 29.981 6.26194 29.981C6.80716 29.981 7.35624 29.9092 7.89741 29.7643C9.50599 29.3333 10.8509 28.3069 11.6877 26.8728L11.8201 26.674V26.6435L22.9526 7.3616C23.6294 6.18932 23.8091 4.82367 23.4589 3.51621ZM8.59298 25.0523C8.23573 25.6711 7.65893 26.1137 6.96876 26.2986C6.73831 26.3604 6.50434 26.3909 6.27208 26.3909C5.80854 26.3909 5.3511 26.2693 4.93895 26.0314C4.3202 25.6741 3.87753 25.0973 3.69266 24.4072C3.50774 23.717 3.60266 22.9962 3.95991 22.3774C4.31716 21.7586 4.89395 21.316 5.58407 21.1311C6.27425 20.9461 6.99507 21.041 7.61388 21.3983C8.23268 21.7556 8.67536 22.3324 8.86022 23.0225C9.04515 23.7127 8.95017 24.4335 8.59298 25.0523Z" fill="#058F94"/>
</g>
<defs>
<clipPath id="clip0_336_341">
<rect width="30" height="30" fill="white"/>
</clipPath>
</defs>
</svg>
