<svg width="30" height="30" viewBox="0 0 30 30" fill="none" xmlns="http://www.w3.org/2000/svg">
<path d="M18.87 28.9394C19.5326 29.5987 20.5144 29.9321 21.7914 29.9321C21.8881 29.9321 21.9865 29.9302 22.0866 29.9264C24.157 29.8471 26.109 28.9956 27.5831 27.5285C29.0584 26.0605 29.9146 24.1159 29.9943 22.0529C30.049 20.635 29.7147 19.5559 29.0008 18.8453L26.3413 16.1987L16.2046 26.2867L18.87 28.9394Z" fill="#125A82"/>
<path d="M11.13 1.06063C10.4172 0.351289 9.33507 0.0192377 7.91341 0.0736127C5.84306 0.152832 3.89101 1.00438 2.41691 2.47145C0.941696 3.93951 0.0854651 5.88412 0.0057776 7.94704C-0.048949 9.36495 0.285328 10.4441 0.999293 11.1547L3.65875 13.8014L13.7955 3.71328L11.13 1.06063Z" fill="#125A82"/>
<path d="M27.583 2.47146C26.1089 1.00438 24.1568 0.152834 22.0865 0.0736738C20.6648 0.0192985 19.5827 0.351351 18.8699 1.06069L0.999297 18.8454C0.285272 19.556 -0.0489483 20.6351 0.00577843 22.053C0.0854662 24.1159 0.941758 26.0605 2.41692 27.5286C3.89103 28.9957 5.84308 29.8472 7.91344 29.9264C8.01358 29.9303 8.11196 29.9322 8.20869 29.9322C9.48569 29.9322 10.4675 29.5988 11.1301 28.9394L29.0006 11.1547C29.7147 10.4441 30.0489 9.36493 29.9942 7.94701C29.9145 5.88415 29.0582 3.93953 27.583 2.47146V2.47146ZM12.1327 12.1465C12.4494 11.8313 12.9629 11.8313 13.2796 12.1465C13.5963 12.4617 13.5963 12.9727 13.2796 13.2879C12.9629 13.6031 12.4494 13.6031 12.1327 13.2879C11.816 12.9727 11.816 12.4617 12.1327 12.1465ZM12.1326 16.7123C12.4493 16.3971 12.9627 16.3971 13.2795 16.7123C13.5962 17.0274 13.5962 17.5385 13.2795 17.8537C12.9628 18.1689 12.4493 18.1689 12.1326 17.8537C11.8159 17.5385 11.8159 17.0274 12.1326 16.7123ZM9.83872 14.4294C10.1554 14.1143 10.6689 14.1143 10.9856 14.4294C11.3023 14.7446 11.3023 15.2557 10.9856 15.5709C10.6689 15.886 10.1554 15.886 9.83872 15.5709C9.52202 15.2557 9.52202 14.7447 9.83872 14.4294ZM15.5732 20.1364C15.2565 20.4516 14.743 20.4516 14.4263 20.1364C14.1096 19.8213 14.1096 19.3102 14.4263 18.995C14.743 18.6799 15.2565 18.6799 15.5732 18.995C15.89 19.3103 15.89 19.8213 15.5732 20.1364ZM15.5734 15.5707C15.2567 15.8859 14.7432 15.8859 14.4265 15.5707C14.1098 15.2556 14.1098 14.7445 14.4265 14.4293C14.7432 14.1141 15.2567 14.1141 15.5734 14.4293C15.8901 14.7445 15.8901 15.2556 15.5734 15.5707ZM15.5735 11.005C15.2568 11.3202 14.7433 11.3202 14.4266 11.005C14.1099 10.6898 14.1099 10.1787 14.4266 9.86356C14.7433 9.54839 15.2568 9.54839 15.5735 9.86356C15.8903 10.1788 15.8903 10.6898 15.5735 11.005ZM17.8673 17.8535C17.5506 18.1687 17.0371 18.1687 16.7203 17.8535C16.4036 17.5383 16.4036 17.0273 16.7203 16.7121C17.037 16.3969 17.5506 16.3969 17.8673 16.7121C18.184 17.0273 18.184 17.5383 17.8673 17.8535ZM17.8674 13.2878C17.5507 13.603 17.0372 13.603 16.7205 13.2878C16.4038 12.9726 16.4038 12.4616 16.7205 12.1464C17.0372 11.8312 17.5507 11.8312 17.8674 12.1464C18.1841 12.4616 18.1841 12.9726 17.8674 13.2878ZM20.1612 15.5706C19.8445 15.8857 19.331 15.8857 19.0143 15.5706C18.6976 15.2554 18.6976 14.7443 19.0143 14.4291C19.331 14.114 19.8445 14.114 20.1612 14.4291C20.4779 14.7444 20.4779 15.2554 20.1612 15.5706Z" fill="#125A82"/>
</svg>
