<svg width="30" height="30" viewBox="0 0 30 30" fill="none" xmlns="http://www.w3.org/2000/svg">
<g clip-path="url(#clip0_335_326)">
<path d="M28.8057 15L29.7753 12.396L27.9761 10.2773L27.9925 7.49777L25.576 6.12596L24.6428 3.50925L21.9038 3.04233L20.132 0.900382L17.398 1.40234L15.0002 0L12.6024 1.4024L9.86832 0.90044L8.09656 3.04244L5.35757 3.50936L4.42438 6.12602L2.00781 7.49783L2.02422 10.2773L0.225098 12.396L1.19462 15L0.225098 17.604L2.02422 19.7227L2.00787 22.5022L4.42438 23.874L5.35757 26.4907L8.09656 26.9576L9.86832 29.0996L12.6023 28.5976L15.0001 30L17.398 28.5976L20.132 29.0996L21.9038 26.9575L24.6428 26.4906L25.576 23.874L27.9925 22.5022L27.9761 19.7227L29.7753 17.604L28.8057 15ZM24.6679 14.1211V15.8789H22.9101V14.1211H24.6679ZM19.9805 11.4845V9.72672H21.7383V11.4845H19.9805ZM21.7383 18.5155V20.2733H19.9805V18.5155H21.7383ZM11.1917 15.8789V14.1211H12.9495V15.8789H11.1917ZM12.9495 22.9099V24.6677H11.1917V22.9099H12.9495ZM11.1917 7.09009V5.33233H12.9495V7.09009H11.1917ZM14.1213 9.72672H15.8791V11.4845H14.1213V9.72672ZM14.1213 18.5155H15.8791V20.2733H14.1213V18.5155ZM17.0509 15.8789V14.1211H18.8087V15.8789H17.0509ZM18.8087 22.9099V24.6677H17.0509V22.9099H18.8087ZM17.0509 7.09009V5.33233H18.8087V7.09009H17.0509ZM8.26214 11.4845V9.72672H10.0199V11.4845H8.26214ZM10.0199 18.5155V20.2733H8.26214V18.5155H10.0199ZM7.09031 14.1211V15.8789H5.33255V14.1211H7.09031Z" fill="#FF7062"/>
</g>
<defs>
<clipPath id="clip0_335_326">
<rect width="30" height="30" fill="white"/>
</clipPath>
</defs>
</svg>
