<?xml version="1.0" encoding="utf-8"?>
<!-- Generator: Adobe Illustrator 26.1.0, SVG Export Plug-In . SVG Version: 6.00 Build 0)  -->
<svg version="1.1" id="Layer_1" xmlns="http://www.w3.org/2000/svg" xmlns:xlink="http://www.w3.org/1999/xlink" x="0px" y="0px"
	 viewBox="0 0 200 200" style="enable-background:new 0 0 200 200;" xml:space="preserve">
<style type="text/css">
	.st0{fill:#FFFFFF;}
</style>
<path class="st0" d="M164.2,66.9l-50.6-50.6C106.9,9.6,97.9,5.9,88.4,5.9H77.7c-28.8,0-52.3,23.4-52.3,52.3v83.4
	c0,28.8,23.4,52.3,52.3,52.3h44.8c28.8,0,52.3-23.4,52.3-52.3V92.2C174.7,82.7,171,73.7,164.2,66.9z M153.6,77.6
	c0,0,0.1,0.1,0.1,0.1h-34.7c-9.1,0-16.5-7.4-16.5-16.5V26.5c0.2,0.1,0.3,0.3,0.5,0.4L153.6,77.6z M122.4,178.8H77.7
	c-20.5,0-37.3-16.7-37.3-37.3V58.1c0-20.5,16.7-37.3,37.3-37.3h9.9v40.3c0,17.4,14.1,31.5,31.5,31.5h40.6v48.8
	C159.7,162.1,143,178.8,122.4,178.8z"/>
<path class="st0" d="M133.8,137.5H65.1c-4.1,0-7.5,3.4-7.5,7.5s3.4,7.5,7.5,7.5h68.7c4.1,0,7.5-3.4,7.5-7.5S138,137.5,133.8,137.5z"
	/>
<path class="st0" d="M133.8,108.6H65.1c-4.1,0-7.5,3.4-7.5,7.5s3.4,7.5,7.5,7.5h68.7c4.1,0,7.5-3.4,7.5-7.5S138,108.6,133.8,108.6z"
	/>
</svg>
