<?xml version="1.0"?>
<svg xmlns="http://www.w3.org/2000/svg" xmlns:xlink="http://www.w3.org/1999/xlink" xmlns:svgjs="http://svgjs.com/svgjs" version="1.1" width="512" height="512" x="0" y="0" viewBox="0 0 64 64" style="enable-background:new 0 0 512 512" xml:space="preserve" class=""><g transform="matrix(0.8300000000000001,0,0,0.8300000000000001,5.441167621612543,5.441168270111085)"><g xmlns="http://www.w3.org/2000/svg" id="calendar-schedule-day-date-download"><path d="m53 9a2 2 0 0 0 -2-2h-6v2a2 2 0 0 1 -4 0v-2h-26v2a2 2 0 0 1 -4 0v-2h-6a2 2 0 0 0 -2 2v6h50z" fill="#000000" data-original="#9bc9ff" class=""/><path d="m10 21h6v6h-6z" fill="#000000" data-original="#9bc9ff" class=""/><path d="m20 21h6v6h-6z" fill="#000000" data-original="#9bc9ff" class=""/><path d="m30 21h6v6h-6z" fill="#000000" data-original="#9bc9ff" class=""/><path d="m30 31h6v6h-6z" fill="#000000" data-original="#9bc9ff" class=""/><path d="m40 21h6v6h-6z" fill="#000000" data-original="#9bc9ff" class=""/><path d="m10 31h6v6h-6z" fill="#000000" data-original="#9bc9ff" class=""/><path d="m20 31h6v6h-6z" fill="#000000" data-original="#9bc9ff" class=""/><path d="m10 41h6v6h-6z" fill="#000000" data-original="#9bc9ff" class=""/><path d="m20 41h6v6h-6z" fill="#000000" data-original="#9bc9ff" class=""/><circle cx="47" cy="47" fill="#000000" r="14" data-original="#9bc9ff" class=""/><g fill="#1e81ce"><path d="m16 20h-6a1 1 0 0 0 -1 1v6a1 1 0 0 0 1 1h6a1 1 0 0 0 1-1v-6a1 1 0 0 0 -1-1zm-1 6h-4v-4h4z" fill="#ffffff" data-original="#1e81ce" class=""/><path d="m26 20h-6a1 1 0 0 0 -1 1v6a1 1 0 0 0 1 1h6a1 1 0 0 0 1-1v-6a1 1 0 0 0 -1-1zm-1 6h-4v-4h4z" fill="#ffffff" data-original="#1e81ce" class=""/><path d="m30 28h6a1 1 0 0 0 1-1v-6a1 1 0 0 0 -1-1h-6a1 1 0 0 0 -1 1v6a1 1 0 0 0 1 1zm1-6h4v4h-4z" fill="#ffffff" data-original="#1e81ce" class=""/><path d="m40 28h6a1 1 0 0 0 1-1v-6a1 1 0 0 0 -1-1h-6a1 1 0 0 0 -1 1v6a1 1 0 0 0 1 1zm1-6h4v4h-4z" fill="#ffffff" data-original="#1e81ce" class=""/><path d="m16 30h-6a1 1 0 0 0 -1 1v6a1 1 0 0 0 1 1h6a1 1 0 0 0 1-1v-6a1 1 0 0 0 -1-1zm-1 6h-4v-4h4z" fill="#ffffff" data-original="#1e81ce" class=""/><path d="m26 30h-6a1 1 0 0 0 -1 1v6a1 1 0 0 0 1 1h6a1 1 0 0 0 1-1v-6a1 1 0 0 0 -1-1zm-1 6h-4v-4h4z" fill="#ffffff" data-original="#1e81ce" class=""/><path d="m34.006 37a1 1 0 0 0 -1-1h-2.006v-4h4v1.965a1 1 0 0 0 2 0v-2.965a1 1 0 0 0 -1-1h-6a1 1 0 0 0 -1 1v6a1 1 0 0 0 1 1h3.006a1 1 0 0 0 1-1z" fill="#ffffff" data-original="#1e81ce" class=""/><path d="m16 40h-6a1 1 0 0 0 -1 1v6a1 1 0 0 0 1 1h6a1 1 0 0 0 1-1v-6a1 1 0 0 0 -1-1zm-1 6h-4v-4h4z" fill="#ffffff" data-original="#1e81ce" class=""/><path d="m26 40h-6a1 1 0 0 0 -1 1v6a1 1 0 0 0 1 1h6a1 1 0 0 0 1-1v-6a1 1 0 0 0 -1-1zm-1 6h-4v-4h4z" fill="#ffffff" data-original="#1e81ce" class=""/><path d="m54 33.74v-24.74a3.009 3.009 0 0 0 -3-3h-5v-1a3 3 0 0 0 -6 0v1h-24v-1a3 3 0 0 0 -6 0v1h-5a3.009 3.009 0 0 0 -3 3v42a3.009 3.009 0 0 0 3 3h28.74a15 15 0 1 0 20.26-20.26zm-12-28.74a1 1 0 0 1 2 0v4a1 1 0 0 1 -2 0zm-30 0a1 1 0 0 1 2 0v4a1 1 0 0 1 -2 0zm-8 4a1 1 0 0 1 1-1h5v1a3 3 0 0 0 6 0v-1h24v1a3 3 0 0 0 6 0v-1h5a1 1 0 0 1 1 1v5h-48zm28.88 43h-27.88a1 1 0 0 1 -1-1v-35h48v16.88a14.807 14.807 0 0 0 -5-.88 15.018 15.018 0 0 0 -15 15 14.807 14.807 0 0 0 .88 5zm14.12 8a13 13 0 1 1 13-13 13.012 13.012 0 0 1 -13 13z" fill="#ffffff" data-original="#1e81ce" class=""/><path d="m55 49a1 1 0 0 0 -1 1v2h-14v-2a1 1 0 0 0 -2 0v3a1 1 0 0 0 1 1h16a1 1 0 0 0 1-1v-3a1 1 0 0 0 -1-1z" fill="#ffffff" data-original="#1e81ce" class=""/><path d="m46.293 50.707a1 1 0 0 0 1.414 0l4.243-4.243a1 1 0 0 0 -1.414-1.414l-2.536 2.536v-10.586a1 1 0 0 0 -2 0v10.586l-2.536-2.536a1 1 0 0 0 -1.414 1.414z" fill="#ffffff" data-original="#1e81ce" class=""/></g></g></g></svg>
