<?xml version="1.0" encoding="utf-8"?>
<!-- Generator: Adobe Illustrator 26.0.3, SVG Export Plug-In . SVG Version: 6.00 Build 0)  -->
<svg version="1.1" id="Layer_1" xmlns="http://www.w3.org/2000/svg" xmlns:xlink="http://www.w3.org/1999/xlink" x="0px" y="0px"
	 viewBox="0 0 200 200" style="enable-background:new 0 0 200 200;" xml:space="preserve">
<style type="text/css">
	.st0{fill:#028AA2;}
</style>
<path id="Path_108" class="st0" d="M114.27,96.81c-1.23,0-2.45,0.27-3.56,0.81c0.02-0.27,0.03-0.53,0.03-0.81
	c0-5.57-4.52-10.09-10.09-10.09c-4.38,0-8.25,2.82-9.6,6.98c-5.24-1.91-11.03,0.78-12.94,6.02c-1.91,5.24,0.78,11.03,6.02,12.94
	c1.11,0.4,2.28,0.61,3.46,0.61h26.67c4.55,0,8.23-3.68,8.23-8.23S118.82,96.81,114.27,96.81C114.27,96.81,114.27,96.81,114.27,96.81
	 M104.33,102.85l-1.76,3.04l-1.76,3.05c-0.26,0.45-0.83,0.6-1.28,0.34c-0.14-0.08-0.26-0.2-0.34-0.34l-1.76-3.04l-1.76-3.04
	c-0.26-0.45-0.1-1.02,0.34-1.28c0.14-0.08,0.3-0.13,0.47-0.13h2.33v-5.58c-0.02-0.66,0.5-1.2,1.15-1.22c0.66-0.02,1.2,0.5,1.22,1.15
	c0,0.02,0,0.05,0,0.07v5.58h2.33c0.52,0,0.94,0.42,0.94,0.94C104.46,102.54,104.41,102.7,104.33,102.85"/>
</svg>
