<?xml version="1.0" encoding="utf-8"?>
<!-- Generator: Adobe Illustrator 26.0.3, SVG Export Plug-In . SVG Version: 6.00 Build 0)  -->
<svg version="1.1" id="Layer_1" xmlns="http://www.w3.org/2000/svg" xmlns:xlink="http://www.w3.org/1999/xlink" x="0px" y="0px"
	 viewBox="0 0 200 200" style="enable-background:new 0 0 200 200;" xml:space="preserve">
<style type="text/css">
	.st0{fill:#56494C;}
</style>
<path class="st0" d="M108.4,41.6c-27,0-49,22-49,49c0,11.7,4.1,22.4,10.9,30.8l-6.2,6.2L53.6,117c-2.5-2.5-6.6-2.5-9.2,0
	c-2.5,2.5-2.5,6.6,0,9.2L55,136.8l-10.6,10.6c-2.5,2.5-2.5,6.6,0,9.2c1.3,1.3,2.9,1.9,4.6,1.9c1.7,0,3.3-0.6,4.6-1.9l10.6-10.6
	l10.6,10.6c1.3,1.3,2.9,1.9,4.6,1.9s3.3-0.6,4.6-1.9c2.5-2.5,2.5-6.6,0-9.2l-10.6-10.6l6.4-6.4c8.1,5.9,18,9.3,28.7,9.3
	c27,0,49-22,49-49C157.4,63.6,135.5,41.6,108.4,41.6z M108.4,126.7c-19.9,0-36.1-16.2-36.1-36.1c0-19.9,16.2-36.1,36.1-36.1
	c19.9,0,36.1,16.2,36.1,36.1C144.5,110.5,128.3,126.7,108.4,126.7z"/>
</svg>
