<?xml version="1.0" encoding="utf-8"?>
<!-- Generator: Adobe Illustrator 26.0.3, SVG Export Plug-In . SVG Version: 6.00 Build 0)  -->
<svg version="1.1" id="Layer_1" xmlns="http://www.w3.org/2000/svg" xmlns:xlink="http://www.w3.org/1999/xlink" x="0px" y="0px"
	 viewBox="0 0 200 200" style="enable-background:new 0 0 200 200;" xml:space="preserve">
<style type="text/css">
	.st0{clip-path:url(#SVGID_00000124159673668790128310000014897920977652794295_);fill:#FFFFFF;}
</style>
<g>
	<g>
		<defs>
			<rect id="SVGID_1_" x="78.04" y="76.71" width="43.92" height="46.59"/>
		</defs>
		<clipPath id="SVGID_00000147921677346107392040000017389857889555342721_">
			<use xlink:href="#SVGID_1_"  style="overflow:visible;"/>
		</clipPath>
		<path id="Path_99" style="clip-path:url(#SVGID_00000147921677346107392040000017389857889555342721_);fill:#FFFFFF;" d="
			M115.53,85.81c-0.74-0.72-1.93-0.7-2.65,0.05c-0.7,0.73-0.7,1.88,0,2.6c7.12,7.11,7.12,18.65,0.01,25.76
			c-7.11,7.12-18.65,7.12-25.76,0.01s-7.12-18.65-0.01-25.76c2.41-2.41,5.46-4.1,8.78-4.87v0.97c0,0.68,0.55,1.24,1.23,1.24
			c0.22,0,0.43-0.06,0.62-0.17l2.87-1.65l2.86-1.65c0.59-0.34,0.79-1.1,0.45-1.69c-0.11-0.19-0.26-0.34-0.45-0.45l-2.86-1.66
			l-2.87-1.65c-0.59-0.34-1.35-0.14-1.69,0.45c-0.11,0.19-0.17,0.4-0.17,0.62v1.83c-11.91,2.27-19.72,13.76-17.46,25.67
			c2.27,11.91,13.76,19.72,25.67,17.46s19.72-13.76,17.46-25.67C120.75,92.9,118.64,88.92,115.53,85.81"/>
		<path id="Path_100" style="clip-path:url(#SVGID_00000147921677346107392040000017389857889555342721_);fill:#FFFFFF;" d="
			M95.84,101.34c0-2.3,1.86-4.16,4.16-4.16c2.3,0,4.16,1.86,4.16,4.16c0,2.3-1.86,4.16-4.16,4.16S95.84,103.63,95.84,101.34
			L95.84,101.34"/>
		<path id="Path_101" style="clip-path:url(#SVGID_00000147921677346107392040000017389857889555342721_);fill:#FFFFFF;" d="
			M84.7,101.34c0-2.3,1.86-4.16,4.16-4.16c2.3,0,4.16,1.86,4.16,4.16c0,2.3-1.86,4.16-4.16,4.16
			C86.56,105.5,84.7,103.63,84.7,101.34L84.7,101.34"/>
		<path id="Path_102" style="clip-path:url(#SVGID_00000147921677346107392040000017389857889555342721_);fill:#FFFFFF;" d="
			M106.98,101.34c0-2.3,1.86-4.16,4.16-4.16s4.16,1.86,4.16,4.16c0,2.3-1.86,4.16-4.16,4.16
			C108.84,105.5,106.98,103.63,106.98,101.34L106.98,101.34"/>
	</g>
</g>
</svg>
