<?xml version="1.0" encoding="utf-8"?>
<!-- Generator: Adobe Illustrator 26.0.3, SVG Export Plug-In . SVG Version: 6.00 Build 0)  -->
<svg version="1.1" id="Layer_1" xmlns="http://www.w3.org/2000/svg" xmlns:xlink="http://www.w3.org/1999/xlink" x="0px" y="0px"
	 viewBox="0 0 200 200" style="enable-background:new 0 0 200 200;" xml:space="preserve">
<style type="text/css">
	.st0{fill:#56494C;}
</style>
<g id="Group_180" transform="translate(-640.188 -252.739)">
	<g id="Path_89">
		<path class="st0" d="M740.2,425.1L740.2,425.1c-2.3,0-4.4-1.2-5.6-3.1c-4.3-7-42.2-69.4-42.2-93.4c-0.2-26.3,21-47.9,47.4-48.2
			c0.1,0,0.3,0,0.4,0c12.6,0,24.5,4.9,33.5,13.7c9.1,8.9,14.2,20.9,14.3,33.7v0.9c0,23.9-37.9,86.2-42.2,93.3
			C744.6,423.9,742.5,425.1,740.2,425.1z M740.2,293.5c-0.1,0-0.2,0-0.3,0c-19.1,0.2-34.6,15.9-34.4,35c0,14.8,21.5,54.7,34.7,77.2
			c13.1-22.5,34.7-62.4,34.7-77.2v-0.7c-0.1-9.3-3.8-18-10.4-24.5C758,297,749.3,293.5,740.2,293.5z"/>
	</g>
	<g id="Ellipse_21">
		<path class="st0" d="M740.2,354.4c-14.5,0-26.3-11.8-26.3-26.3s11.8-26.3,26.3-26.3c14.5,0,26.3,11.8,26.3,26.3
			S754.7,354.4,740.2,354.4z M740.2,314.8c-7.3,0-13.2,5.9-13.2,13.2c0,7.3,5.9,13.2,13.2,13.2c7.3,0,13.2-5.9,13.2-13.2
			C753.4,320.8,747.5,314.8,740.2,314.8z"/>
	</g>
</g>
</svg>
