<?xml version="1.0" encoding="utf-8"?>
<!-- Generator: Adobe Illustrator 26.0.3, SVG Export Plug-In . SVG Version: 6.00 Build 0)  -->
<svg version="1.1" id="Layer_1" xmlns="http://www.w3.org/2000/svg" xmlns:xlink="http://www.w3.org/1999/xlink" x="0px" y="0px"
	 viewBox="0 0 200 200" style="enable-background:new 0 0 200 200;" xml:space="preserve">
<style type="text/css">
	.st0{fill:#E0623F;}
</style>
<path id="Path_108" class="st0" d="M151.1,137c-7.1-9.5-11.2-21-11.5-32.9V87.8c-0.4-8.3-3.3-16.3-8.3-23
	c-4.9-6.7-11.8-11.6-19.8-13.9v-5.1c0.1-6.3-4.9-11.5-11.3-11.7c-6.3-0.1-11.5,4.9-11.7,11.3c0,0.1,0,0.3,0,0.4V51
	c-8,2.3-14.9,7.2-19.8,13.9c-5,6.7-7.9,14.7-8.3,23v16.3c-0.3,11.9-4.4,23.4-11.5,32.9c-2.7,3.3-2.2,8.1,1.1,10.8
	c1.4,1.1,3.1,1.7,4.9,1.7h26.6c2,10.3,11.9,17,22.1,15c7.6-1.5,13.6-7.4,15-15h26.6c4.2,0,7.7-3.4,7.7-7.6
	C152.9,140.1,152.3,138.4,151.1,137 M96.2,45.9c0-2.1,1.7-3.8,3.8-3.8c2.1,0,3.8,1.7,3.8,3.8v3.6c-1.2-0.1-2.5-0.2-3.8-0.2
	s-2.6,0.1-3.8,0.2L96.2,45.9z M100,157.2c-4.8,0-9-3-10.6-7.5h21.2C109,154.2,104.8,157.2,100,157.2 M100,141.9H54.9
	c8.3-10.9,12.9-24.1,13.3-37.7V87.8c0-8.2,7.5-30.7,31.9-30.7h0c24.4,0,31.9,22.5,31.9,30.7v16.3c0.4,13.7,5,26.9,13.3,37.7H100z"/>
</svg>
