<svg height="511pt" viewBox="1 0 511.99975 511" fill="#ffff" width="511pt" xmlns="http://www.w3.org/2000/svg"><path d="m195.996094 330.496094c-5.519532 0-10 4.480468-10 10 0 5.519531 4.480468 10 10 10 5.519531 0 10-4.480469 10-10 0-5.519532-4.480469-10-10-10zm0 0"/><path d="m295.996094.5h-60c-5.523438 0-10 4.476562-10 10v73h-73c-5.519532 0-10 4.476562-10 10v59.996094c0 5.523437 4.480468 10 10 10h73v73c0 5.523437 4.476562 10 10 10h60c5.519531 0 10-4.476563 10-10v-73h72.996094c5.523437 0 10-4.476563 10-10v-59.996094c0-5.523438-4.476563-10-10-10h-72.996094v-73c0-5.523438-4.480469-10-10-10zm72.996094 103v39.996094h-72.996094c-5.523438 0-10 4.480468-10 10v73h-40v-73c0-5.519532-4.476563-10-10-10h-73v-39.996094h73c5.523437 0 10-4.480469 10-10v-73h40v73c0 5.519531 4.476562 10 10 10zm0 0"/><path d="m443.695312 220.132812-79.1875 79.535157c-4.734374-16.8125-20.207031-29.171875-38.511718-29.171875h-148.667969c-13.371094 0-25.929687 5.203125-35.367187 14.652344l-139.039063 139.28125c-3.894531 3.898437-3.894531 10.214843-.007813 14.121093l70.707032 71c1.878906 1.882813 4.429687 2.941407 7.085937 2.941407h.007813c2.660156-.003907 5.210937-1.0625 7.085937-2.953126l78.546875-79.046874h159.855469c13.363281 0 25.921875-5.203126 35.363281-14.660157l138.707032-139.15625c15.625-15.625 15.644531-40.929687.003906-56.554687-15.585938-15.601563-40.882813-15.6875-56.582032.011718zm42.425782 42.414063-138.710938 139.160156c-5.660156 5.667969-13.191406 8.785157-21.207031 8.785157h-164.015625c-2.664062 0-5.21875 1.0625-7.09375 2.953124l-74.394531 74.867188-56.578125-56.8125 131.992187-132.21875c5.65625-5.664062 13.191407-8.785156 21.214844-8.785156h148.667969c11.027344 0 20 8.972656 20 20 0 4.070312-1.222656 7.953125-3.511719 11.289062-2.445313 1.792969-5.585937 8.710938-16.488281 8.710938h-90c-5.523438 0-10 4.476562-10 10 0 5.519531 4.476562 10 10 10h90c12.679687 0 24.269531-5.898438 31.765625-15.707032l100.09375-100.53125c7.8125-7.816406 20.457031-7.828124 28.277343.003907 7.808594 7.800781 7.832032 20.441406-.011718 28.285156zm0 0"/></svg>