<?xml version="1.0" encoding="utf-8"?>
<!-- Generator: Adobe Illustrator 26.0.3, SVG Export Plug-In . SVG Version: 6.00 Build 0)  -->
<svg version="1.1" id="Layer_1"  xmlns="http://www.w3.org/2000/svg" xmlns:xlink="http://www.w3.org/1999/xlink" x="0px" y="0px"
	 viewBox="0 0 200 200" style="enable-background:new 0 0 200 200;" xml:space="preserve">
<style type="text/css">
	.st0{fill:#004876;}
</style>
<g>
	<path class="st0" d="M100.1,33c16.8,0,30.5,13.7,30.5,30.5s-13.7,30.5-30.5,30.5S69.6,80.2,69.6,63.4S83.3,33,100.1,33 M100.1,20.8
		c-23.5,0-42.6,19.1-42.6,42.6c0,23.5,19.1,42.6,42.6,42.6c23.5,0,42.6-19.1,42.6-42.6C142.7,39.9,123.6,20.8,100.1,20.8L100.1,20.8
		z"/>
</g>
<g>
	<path class="st0" d="M100.1,178.8c-3.3,0-20.7-0.2-36.7-4.5c-24.6-6.6-29.8-18.7-29.8-27.7c0-25.9,19.1-45.2,19.9-46.1
		c2.2-2.2,5.8-2.2,8.1,0c2.2,2.2,2.2,5.8,0,8.1c-0.2,0.2-16.6,16.9-16.6,38c0,17.1,39.8,20.8,55.2,20.8s55.2-3.7,55.2-20.8
		c0-21.1-16.4-37.8-16.6-38c-2.2-2.2-2.2-5.8,0-8.1c2.2-2.2,5.8-2.2,8,0c0.8,0.8,19.9,20.2,19.9,46.1c0,9-5.2,21.1-29.8,27.7
		C120.8,178.6,103.4,178.8,100.1,178.8z"/>
</g>
</svg>
