<svg id="Capa_1" fill="rgb(0, 95, 115)" enable-background="new 0 0 512 512" height="512" viewBox="0 0 512 512" width="512" xmlns="http://www.w3.org/2000/svg"><g><path d="m352.213 0h-291.213v512h390v-413.213zm8.787 51.213 38.787 38.787h-38.787zm-270 430.787v-452h240v90h90v362z"/><path d="m256 120c8.271 0 15 6.729 15 15 0 5.34-2.878 10.322-7.511 13.002-13.872 8.025-22.489 22.957-22.489 38.971v23.027h30v-23.027c0-5.34 2.878-10.323 7.511-13.003 13.872-8.024 22.489-22.956 22.489-38.97 0-24.813-20.187-45-45-45s-45 20.187-45 45h30c0-8.271 6.729-15 15-15z"/><path d="m241 240h30v30h-30z"/><path d="m181 300h210v30h-210z"/><path d="m181 360h210v30h-210z"/><path d="m121 300h30v30h-30z"/><path d="m121 360h30v30h-30z"/><path d="m181 420h210v30h-210z"/><path d="m121 420h30v30h-30z"/></g></svg>