<svg height="512" viewBox="0 0 32 32" fill="
#61bbda" width="512" xmlns="http://www.w3.org/2000/svg"><g id="Layer_21" data-name="Layer 21"><path d="m25 2h-18a3 3 0 0 0 -3 3v22a3 3 0 0 0 3 3h18a3 3 0 0 0 3-3v-22a3 3 0 0 0 -3-3zm-19 25v-22a1 1 0 0 1 1-1h1v24h-1a1 1 0 0 1 -1-1zm20 0a1 1 0 0 1 -1 1h-15v-24h15a1 1 0 0 1 1 1zm-8.11-11.56a3.72 3.72 0 1 0 -3.72-3.72 3.73 3.73 0 0 0 3.72 3.72zm0-5.44a1.72 1.72 0 1 1 -1.72 1.72 1.72 1.72 0 0 1 1.72-1.72zm2.44 6.22a3.09 3.09 0 0 0 -2-.06 1.28 1.28 0 0 1 -.82 0 3.09 3.09 0 0 0 -2 .06 6.82 6.82 0 0 0 -4.51 6.34v.44a1 1 0 0 0 1 1h11.78a1 1 0 0 0 1-1v-.44a6.82 6.82 0 0 0 -4.45-6.34zm-7.33 5.78a4.84 4.84 0 0 1 3.12-3.9 1.09 1.09 0 0 1 .68-.05 3.24 3.24 0 0 0 2.13 0 1 1 0 0 1 .67.05 4.81 4.81 0 0 1 3.15 3.9z"/></g></svg>