<svg width="30" height="30" viewBox="0 0 30 30" fill="none" xmlns="http://www.w3.org/2000/svg">
<path d="M0.833435 19.1928H4.16656C4.62677 19.1928 5 19.5657 5 20.0259V28.3594C5 28.8196 4.62677 29.1928 4.16656 29.1928H0.833435C0.37323 29.1928 0 28.8196 0 28.3594V20.0259C0 19.5657 0.37323 19.1928 0.833435 19.1928Z" fill="#3178BB"/>
<path d="M9.16663 12.5259H12.5001C12.9603 12.5259 13.3335 12.8992 13.3335 13.3594V28.3594C13.3335 28.8196 12.9603 29.1928 12.5001 29.1928H9.16663C8.70642 29.1928 8.3335 28.8196 8.3335 28.3594V13.3594C8.3335 12.8992 8.70642 12.5259 9.16663 12.5259Z" fill="#3178BB"/>
<path d="M17.4999 15.8594H20.8334C21.2936 15.8594 21.6665 16.2326 21.6665 16.6928V28.3594C21.6665 28.8196 21.2936 29.1928 20.8334 29.1928H17.4999C17.0397 29.1928 16.6665 28.8196 16.6665 28.3594V16.6928C16.6665 16.2326 17.0397 15.8594 17.4999 15.8594Z" fill="#3178BB"/>
<path d="M25.8334 10.8594H29.1666C29.6268 10.8594 30 11.2326 30 11.6928V28.3594C30 28.8196 29.6268 29.1928 29.1666 29.1928H25.8334C25.3732 29.1928 25 28.8196 25 28.3594V11.6928C25 11.2326 25.3732 10.8594 25.8334 10.8594Z" fill="#3178BB"/>
<path d="M27.5 0.859375C26.12 0.860901 25.0015 1.97937 25 3.35938C25.0034 3.63159 25.0516 3.90137 25.1428 4.15771L20.9711 6.63757C20.4236 6.05682 19.6298 5.77545 18.8388 5.88135C18.0475 5.98724 17.356 6.46759 16.9803 7.17194L13.3008 5.34943C13.3188 5.24231 13.3295 5.13428 13.3334 5.02594C13.3353 4.01398 12.7271 3.10089 11.7926 2.7124C10.8582 2.32422 9.7818 2.53754 9.06616 3.25287C8.35022 3.9682 8.13629 5.04425 8.52417 5.979L3.75122 9.54102C3.3728 9.31549 2.94067 9.19525 2.5 9.19281C1.11938 9.19281 0 10.3119 0 11.6928C0 13.0734 1.11938 14.1928 2.5 14.1928C3.88062 14.1928 5 13.0734 5 11.6928C4.99786 11.3919 4.9411 11.0944 4.83246 10.8139L9.65302 7.21619C10.596 7.742 11.7722 7.58789 12.5476 6.83655L16.7319 8.909C17.0108 10.1514 18.1799 10.9851 19.4455 10.8441C20.7111 10.7031 21.6681 9.63287 21.6666 8.35938C21.6666 8.2959 21.6525 8.23608 21.6479 8.17383L26.1853 5.47638C26.5787 5.7251 27.0343 5.85785 27.5 5.85938C28.8806 5.85938 30 4.73999 30 3.35938C30 1.97876 28.8806 0.859375 27.5 0.859375Z" fill="#3178BB"/>
</svg>
