<?xml version="1.0" encoding="utf-8"?>
<!-- Generator: Adobe Illustrator 26.0.3, SVG Export Plug-In . SVG Version: 6.00 Build 0)  -->
<svg version="1.1" id="Layer_1" xmlns="http://www.w3.org/2000/svg" xmlns:xlink="http://www.w3.org/1999/xlink" x="0px" y="0px"
	 viewBox="0 0 200 200" style="enable-background:new 0 0 200 200;" xml:space="preserve">
<style type="text/css">
	.st0{fill:#004876;}
	.st1{fill:#54565A;}
</style>
<path class="st0" d="M148.3,72.6c-1.3,0-2.5,0.8-2.8,2.1l-8.1,23.3l-13.2-43.8c-0.4-1.2-1.5-2.1-2.8-2.1c-1.3,0-2.4,0.7-2.9,1.9
	l-11.3,28.4c1.7,1.7,3.2,3.7,4.1,6l9.7-24.1l13.5,44.6c0.4,1.3,1.5,2.1,2.8,2.1c0,0,0,0,0,0c1.3,0,2.5-0.8,2.8-2.1l10.3-30.7h16.2
	v-5.7H148.3z"/>
<g>
	<g>
		<path class="st1" d="M32.4,106.1c-2.3-1.3-4.1-3-5.4-5.3s-2-4.8-2-7.7s0.7-5.4,2-7.6s3.1-4,5.4-5.3c2.3-1.3,4.8-1.9,7.5-1.9
			s5.2,0.6,7.5,1.9c2.3,1.3,4.1,3,5.4,5.3c1.3,2.3,2,4.8,2,7.6s-0.7,5.4-2,7.7s-3.1,4-5.4,5.3c-2.3,1.3-4.8,1.9-7.5,1.9
			S34.7,107.3,32.4,106.1z M45.5,99.2c1.4-1.5,2.1-3.6,2.1-6.1c0-2.6-0.7-4.6-2.1-6.1c-1.4-1.5-3.2-2.3-5.6-2.3
			c-2.3,0-4.2,0.8-5.6,2.3c-1.4,1.5-2.1,3.6-2.1,6.2c0,2.6,0.7,4.6,2.1,6.1c1.4,1.5,3.3,2.3,5.6,2.3
			C42.2,101.5,44.1,100.8,45.5,99.2z"/>
		<path class="st1" d="M79.2,87c1.6,1.8,2.4,4.2,2.4,7.2v13.5h-7V95.2c0-1.5-0.4-2.7-1.2-3.6c-0.8-0.9-1.9-1.3-3.2-1.3
			s-2.4,0.4-3.2,1.3c-0.8,0.9-1.2,2.1-1.2,3.6v12.5h-7.1V84.6h7.1v3.1c0.7-1,1.7-1.8,2.9-2.4c1.2-0.6,2.6-0.9,4.1-0.9
			C75.4,84.4,77.6,85.3,79.2,87z"/>
		<path class="st1" d="M108.1,97.9h-16c0.1,1.4,0.6,2.5,1.4,3.3c0.8,0.8,1.8,1.1,3,1.1c1.8,0,3-0.7,3.7-2.2h7.5
			c-0.4,1.5-1.1,2.9-2.1,4.1c-1,1.2-2.3,2.2-3.8,2.9c-1.5,0.7-3.2,1-5.1,1c-2.3,0-4.3-0.5-6-1.4s-3.1-2.3-4.1-4.1
			c-1-1.8-1.5-3.9-1.5-6.3s0.5-4.5,1.5-6.3c1-1.8,2.3-3.2,4.1-4.1c1.8-1,3.8-1.4,6.1-1.4c2.2,0,4.2,0.5,5.9,1.4
			c1.7,0.9,3.1,2.3,4.1,4c1,1.7,1.5,3.8,1.5,6.1C108.2,96.5,108.2,97.1,108.1,97.9z M101,93.9c0-1.2-0.4-2.2-1.2-2.9
			c-0.8-0.7-1.9-1.1-3.1-1.1c-1.2,0-2.2,0.3-3,1c-0.8,0.7-1.3,1.7-1.5,2.9H101z"/>
	</g>
	<g>
		<path class="st1" d="M47.1,132.3c-0.8,1.4-2,2.5-3.6,3.4c-1.6,0.9-3.6,1.3-5.9,1.3h-4.4v10.4h-7.1v-29h11.4c2.3,0,4.3,0.4,5.9,1.2
			c1.6,0.8,2.8,1.9,3.6,3.3c0.8,1.4,1.2,3,1.2,4.8C48.3,129.4,47.9,130.9,47.1,132.3z M40.1,130.4c0.7-0.6,1-1.5,1-2.7
			c0-1.2-0.3-2.1-1-2.7s-1.7-1-3-1h-3.8v7.3h3.8C38.4,131.4,39.4,131,40.1,130.4z"/>
		<path class="st1" d="M51.9,129.6c0.9-1.8,2.1-3.2,3.7-4.1c1.5-1,3.3-1.4,5.2-1.4c1.6,0,3.1,0.3,4.3,1c1.2,0.7,2.2,1.5,2.8,2.6
			v-3.3h7.1v23.1h-7.1v-3.3c-0.7,1.1-1.6,1.9-2.9,2.6c-1.2,0.7-2.7,1-4.3,1c-1.9,0-3.6-0.5-5.1-1.5c-1.5-1-2.8-2.4-3.7-4.2
			c-0.9-1.8-1.3-3.9-1.3-6.3C50.6,133.5,51,131.4,51.9,129.6z M66.4,131.7c-1-1-2.2-1.5-3.6-1.5c-1.4,0-2.6,0.5-3.6,1.5
			c-1,1-1.5,2.4-1.5,4.2c0,1.8,0.5,3.2,1.5,4.2c1,1,2.2,1.5,3.6,1.5c1.4,0,2.6-0.5,3.6-1.5c1-1,1.5-2.4,1.5-4.2
			S67.3,132.7,66.4,131.7z"/>
		<path class="st1" d="M92.9,141.4v6h-3.6c-2.6,0-4.6-0.6-6-1.9c-1.4-1.3-2.1-3.3-2.1-6.1v-9.2h-2.8v-5.9h2.8v-5.6h7.1v5.6h4.6v5.9
			h-4.6v9.3c0,0.7,0.2,1.2,0.5,1.5s0.9,0.5,1.7,0.5H92.9z"/>
		<path class="st1" d="M97.3,120.8c-0.8-0.7-1.2-1.6-1.2-2.7c0-1.1,0.4-2,1.2-2.7c0.8-0.7,1.8-1.1,3-1.1c1.2,0,2.2,0.4,3,1.1
			c0.8,0.7,1.2,1.6,1.2,2.7c0,1.1-0.4,2-1.2,2.7c-0.8,0.7-1.8,1.1-3,1.1C99.1,121.9,98.1,121.6,97.3,120.8z M103.9,124.3v23.1h-7.1
			v-23.1H103.9z"/>
		<path class="st1" d="M130.6,137.6h-16c0.1,1.4,0.6,2.5,1.4,3.3c0.8,0.8,1.8,1.1,3,1.1c1.8,0,3-0.7,3.7-2.2h7.5
			c-0.4,1.5-1.1,2.9-2.1,4.1c-1,1.2-2.3,2.2-3.8,2.9c-1.5,0.7-3.2,1-5.1,1c-2.3,0-4.3-0.5-6-1.4s-3.1-2.3-4.1-4.1
			c-1-1.8-1.5-3.9-1.5-6.3s0.5-4.5,1.5-6.3c1-1.8,2.3-3.2,4.1-4.1c1.8-1,3.8-1.4,6.1-1.4c2.2,0,4.2,0.5,5.9,1.4
			c1.7,0.9,3.1,2.3,4.1,4c1,1.7,1.5,3.8,1.5,6.1C130.7,136.2,130.7,136.8,130.6,137.6z M123.5,133.6c0-1.2-0.4-2.2-1.2-2.9
			c-0.8-0.7-1.9-1.1-3.1-1.1c-1.2,0-2.2,0.3-3,1c-0.8,0.7-1.3,1.7-1.5,2.9H123.5z"/>
		<path class="st1" d="M154.9,126.7c1.6,1.8,2.4,4.2,2.4,7.2v13.5h-7v-12.5c0-1.5-0.4-2.7-1.2-3.6c-0.8-0.9-1.9-1.3-3.2-1.3
			s-2.4,0.4-3.2,1.3c-0.8,0.9-1.2,2.1-1.2,3.6v12.5h-7.1v-23.1h7.1v3.1c0.7-1,1.7-1.8,2.9-2.4c1.2-0.6,2.6-0.9,4.1-0.9
			C151.2,124.1,153.3,125,154.9,126.7z"/>
		<path class="st1" d="M175.1,141.4v6h-3.6c-2.6,0-4.6-0.6-6-1.9c-1.4-1.3-2.1-3.3-2.1-6.1v-9.2h-2.8v-5.9h2.8v-5.6h7.1v5.6h4.6v5.9
			h-4.6v9.3c0,0.7,0.2,1.2,0.5,1.5s0.9,0.5,1.7,0.5H175.1z"/>
	</g>
</g>
</svg>
