<svg id="Layer_1" data-name="Layer 1" xmlns="http://www.w3.org/2000/svg" viewBox="0 0 515.05 315.62"><defs><style>.cls-1{fill:#57595d;}.cls-2{fill:#e0603f;}.cls-3{fill:#55575b;stroke:#55575b;stroke-miterlimit:10;stroke-width:5px;}</style></defs><path class="cls-1" d="M315.31,121.14c-24.77,0-42.76-17.23-42.76-44s17.53-44,42.76-44c24.63,0,42,16.77,42,42.16a50.53,50.53,0,0,1-.61,8.31H294.39c1.06,12.62,9.68,19.71,20.47,19.71,9.22,0,14.29-4.61,17.08-10.29h23.2C350.53,108.67,336.34,121.14,315.31,121.14ZM294.54,64H335c-.31-8.08-9.23-13.14-20.32-13.14C304.37,50.85,296.21,55.58,294.54,64Z"/><path class="cls-1" d="M295.27,269.88c-24.78,0-42.76-17.23-42.76-44,0-26.91,17.53-44,42.76-44,24.63,0,42,16.78,42,42.16a50.45,50.45,0,0,1-.61,8.31H274.35C275.41,245,284,252.1,294.82,252.1c9.22,0,14.29-4.61,17.07-10.29H335.1C330.49,257.42,316.3,269.88,295.27,269.88ZM274.5,212.73h40.43c-.3-8.07-9.22-13.13-20.32-13.13C284.33,199.6,276.17,204.33,274.5,212.73Z"/><path class="cls-2" d="M341.5,203.44s5.32,12.48,5.32,24.36l40.06-64.05s36,137.84,37.38,142.77,3.61,9.1,9,9.1,7.18-5.59,8.46-9.21,27.88-92.5,27.88-92.5h45.46V196H464.41c-5.31,0-8.08,4-10,10.29s-21,67.78-21,67.78S397.25,142.51,396.63,140.2s-1.82-7.65-6.61-7.65-6.24,2.21-11.51,10.62C373.69,153.21,341.5,203.44,341.5,203.44Z"/><path class="cls-3" d="M3.49,4.71A170.8,170.8,0,0,1,31.82,2.5C46.41,2.5,57.1,5.89,63.89,12c6.28,5.43,10,13.74,10,23.92,0,10.35-3.05,18.5-8.82,24.44-7.81,8.31-20.53,12.55-34.95,12.55a50.73,50.73,0,0,1-11.88-1V117.7H3.49ZM18.25,59.85A49.45,49.45,0,0,0,30.46,61c17.82,0,28.68-8.65,28.68-24.43,0-15.1-10.69-22.39-27-22.39-6.44,0-11.37.51-13.91,1.19Z"/><path class="cls-3" d="M138.53,117.7l-1.19-10.35h-.51c-4.58,6.45-13.4,12.22-25.11,12.22-16.62,0-25.11-11.71-25.11-23.58,0-19.85,17.65-30.71,49.38-30.54v-1.7c0-6.79-1.87-19-18.67-19A40.81,40.81,0,0,0,96,50.86L92.55,41c6.79-4.41,16.63-7.29,27-7.29,25.11,0,31.22,17.14,31.22,33.59V98a115.36,115.36,0,0,0,1.36,19.68Zm-2.2-41.9c-16.29-.35-34.79,2.54-34.79,18.49,0,9.67,6.45,14.25,14.09,14.25A20.44,20.44,0,0,0,135.48,94.8a15.61,15.61,0,0,0,.85-4.75Z"/><path class="cls-3" d="M196.37,12V35.59h21.38V47H196.37V91.23c0,10.18,2.89,16,11.2,16a33.63,33.63,0,0,0,8.65-1l.68,11.19c-2.88,1.19-7.46,2-13.23,2-7,0-12.55-2.21-16.12-6.28-4.24-4.41-5.77-11.71-5.77-21.38V47H169.06V35.59h12.72V15.9Z"/><path class="cls-3" d="M255.41,12.51c.17,5.09-3.57,9.16-9.5,9.16a8.88,8.88,0,0,1-9-9.16,9.1,9.1,0,0,1,9.34-9.33C251.84,3.18,255.41,7.25,255.41,12.51ZM238.78,117.7V35.59h14.93V117.7Z"/><path class="cls-3" d="M371.94,57.81c0-8.48-.17-15.44-.67-22.22H384.5l.85,13.57h.34c4.07-7.81,13.57-15.44,27.14-15.44,11.37,0,29,6.78,29,35v49H426.92V70.37c0-13.24-4.93-24.27-19-24.27-9.84,0-17.47,7-20,15.27a21.49,21.49,0,0,0-1,7V117.7H371.94Z"/><path class="cls-3" d="M487.64,12V35.59H509V47H487.64V91.23c0,10.18,2.89,16,11.2,16a33.63,33.63,0,0,0,8.65-1l.68,11.19c-2.88,1.19-7.46,2-13.23,2-7,0-12.56-2.21-16.12-6.28-4.24-4.41-5.77-11.71-5.77-21.38V47H460.33V35.59h12.72V15.9Z"/><path class="cls-3" d="M30.64,229.18l-11.88,36H3.49L42.34,150.79H60.16l39,114.36H83.4l-12.21-36Zm37.49-11.54-11.2-32.92c-2.54-7.46-4.24-14.25-5.93-20.87h-.34c-1.7,6.79-3.57,13.75-5.77,20.7l-11.2,33.09Z"/><path class="cls-3" d="M135.81,160c.18,5.09-3.56,9.16-9.5,9.16a8.87,8.87,0,0,1-9-9.16,9.09,9.09,0,0,1,9.33-9.33C132.25,150.62,135.81,154.69,135.81,160Zm-16.62,105.2V183h14.93v82.12Z"/><path class="cls-3" d="M234,144.68v99.26c0,7.29.17,15.61.68,21.21h-13.4l-.68-14.26h-.34c-4.58,9.16-14.59,16.12-28,16.12-19.86,0-35.13-16.8-35.13-41.74C157,198,174,181.16,194,181.16c12.56,0,21,5.94,24.77,12.56h.34v-49Zm-14.93,71.77a26.33,26.33,0,0,0-.68-6.28,22,22,0,0,0-21.54-17.31c-15.44,0-24.61,13.58-24.61,31.74,0,16.62,8.15,30.36,24.27,30.36,10,0,19.17-6.61,21.88-17.81a25.9,25.9,0,0,0,.68-6.45Z"/></svg>