<?xml version="1.0" encoding="utf-8"?>
<!-- Generator: Adobe Illustrator 26.0.3, SVG Export Plug-In . SVG Version: 6.00 Build 0)  -->
<svg version="1.1" id="Layer_1" xmlns="http://www.w3.org/2000/svg" xmlns:xlink="http://www.w3.org/1999/xlink" x="0px" y="0px"
	 viewBox="0 0 200 200" style="enable-background:new 0 0 200 200;" xml:space="preserve">
<style type="text/css">
	.st0{fill:#847E89;}
</style>
<path id="Path_59" class="st0" d="M25.8,89.3c0.1,2.1-0.7,4.2-2.4,5.5c-1.6,1.3-3.8,1.9-6.7,1.9h-2.1c-0.1,0-0.3,0.1-0.3,0.3
	c0,0,0,0,0,0v8.1c0,0.1-0.1,0.3-0.3,0.3h-3.2c-0.1,0-0.3-0.1-0.3-0.3c0,0,0,0,0,0V82.6c0-0.1,0.1-0.3,0.3-0.3h6.4
	c2.9,0,5,0.6,6.5,1.8C25.1,85.3,25.8,87,25.8,89.3 M14.3,93.3c0,0.1,0.1,0.3,0.3,0.3c0,0,0,0,0,0h1.7c1.9,0,3.3-0.3,4.3-1
	c0.9-0.8,1.5-1.9,1.4-3.1c0.1-1.1-0.4-2.2-1.2-3c-1.1-0.7-2.4-1.1-3.8-1h-2.3c-0.1,0-0.3,0.1-0.3,0.3L14.3,93.3z"/>
<path id="Path_60" class="st0" d="M41.1,105.4c-0.1,0-0.2-0.1-0.3-0.2l-0.7-2.2H40c-0.7,0.9-1.5,1.7-2.5,2.2c-1,0.4-2.2,0.6-3.3,0.6
	c-1.5,0.1-2.9-0.4-4-1.4c-1-1-1.5-2.5-1.4-3.9c-0.1-1.6,0.7-3.2,2-4.1c1.3-0.9,3.4-1.4,6.1-1.5l2.7-0.1c0.1,0,0.3-0.1,0.3-0.3v-0.7
	c0.1-0.9-0.2-1.8-0.8-2.5c-0.7-0.6-1.5-0.9-2.4-0.8c-0.9,0-1.7,0.1-2.6,0.4c-0.7,0.2-1.4,0.5-2.1,0.8c-0.1,0.1-0.3,0-0.3-0.1
	c0,0,0,0,0,0l-1-2.2c-0.1-0.1,0-0.3,0.1-0.4c0.9-0.4,1.9-0.8,2.9-1c1-0.2,2.1-0.4,3.2-0.4c2.2,0,3.9,0.5,5,1.4
	c1.1,1,1.7,2.5,1.7,4.5v11.5c0,0.1-0.1,0.3-0.3,0.3L41.1,105.4z M35.4,102.9c1.2,0.1,2.3-0.3,3.2-1.1c0.8-0.8,1.3-2,1.2-3.2v-1.2
	c0-0.1-0.1-0.3-0.3-0.3c0,0,0,0,0,0l-2,0.1c-1.3,0-2.6,0.3-3.8,0.9c-0.8,0.5-1.2,1.4-1.2,2.4c0,0.7,0.2,1.3,0.7,1.8
	C33.9,102.7,34.6,102.9,35.4,102.9"/>
<path id="Path_61" class="st0" d="M55.2,102.7c0.8,0,1.6-0.1,2.4-0.3c0.1,0,0.3,0,0.3,0.2c0,0,0,0,0,0.1v2.3c0,0.1-0.1,0.2-0.2,0.2
	c-0.5,0.2-0.9,0.3-1.4,0.4c-0.7,0.1-1.3,0.2-2,0.2c-3.5,0-5.3-1.8-5.3-5.5V91c0-0.1-0.1-0.3-0.3-0.3l0,0h-1.8
	c-0.1,0-0.3-0.1-0.3-0.3c0,0,0,0,0,0v-1.2c0-0.1,0.1-0.2,0.1-0.2l2.3-1.2c0.1,0,0.1-0.1,0.1-0.1l1.2-3.4c0-0.1,0.1-0.2,0.3-0.2h1.8
	c0.1,0,0.3,0.1,0.3,0.3v0v3.3c0,0.1,0.1,0.3,0.3,0.3l0,0h4.4c0.1,0,0.3,0.1,0.3,0.3l0,0v2.3c0,0.1-0.1,0.3-0.3,0.3l0,0H53
	c-0.1,0-0.3,0.1-0.3,0.3v0v9.1c-0.1,0.7,0.2,1.4,0.7,2C53.9,102.5,54.6,102.7,55.2,102.7"/>
<path id="Path_62" class="st0" d="M61.2,83.4c0-0.6,0.2-1.1,0.5-1.5c0.4-0.4,1-0.6,1.6-0.5c0.6,0,1.1,0.2,1.5,0.5
	c0.4,0.4,0.6,1,0.5,1.5c0,0.5-0.2,1.1-0.5,1.5c-0.4,0.4-1,0.6-1.5,0.5c-0.6,0-1.1-0.2-1.6-0.5C61.3,84.5,61.1,83.9,61.2,83.4
	 M64.8,105.4h-3.2c-0.1,0-0.3-0.1-0.3-0.3l0,0V88.2c0-0.1,0.1-0.3,0.3-0.3l0,0h3.2c0.1,0,0.3,0.1,0.3,0.3c0,0,0,0,0,0v16.9
	C65.1,105.3,65,105.4,64.8,105.4C64.8,105.4,64.8,105.4,64.8,105.4"/>
<path id="Path_63" class="st0" d="M78,105.7c-2.7,0-4.8-0.8-6.4-2.4c-1.5-1.6-2.3-3.8-2.3-6.5c0-2.8,0.7-5.1,2.1-6.7
	c1.5-1.7,3.6-2.6,5.8-2.4c2-0.1,4,0.7,5.4,2.1c1.4,1.6,2.1,3.7,2,5.8v1.7c0,0.1-0.1,0.3-0.3,0.3l0,0H73.4c-0.2,0-0.3,0.1-0.3,0.3
	c0,0,0,0,0,0c0,1.3,0.5,2.6,1.4,3.6c1,0.9,2.3,1.4,3.6,1.4c1,0,1.9-0.1,2.9-0.3c0.9-0.2,1.7-0.5,2.5-0.8c0.1-0.1,0.3,0,0.4,0.1
	c0,0,0,0.1,0,0.1v2.4c0,0.1-0.1,0.2-0.2,0.2c-0.8,0.4-1.7,0.7-2.6,0.8C80.1,105.6,79,105.7,78,105.7 M77.3,90.5
	c-1.1,0-2.1,0.4-2.8,1.1c-0.7,0.8-1.1,1.9-1.2,3c0,0.1,0.1,0.3,0.2,0.3c0,0,0,0,0,0h7.3c0.1,0,0.3-0.1,0.3-0.3c0,0,0,0,0,0
	c0-1.1-0.3-2.1-1-3C79.4,90.8,78.3,90.4,77.3,90.5"/>
<path id="Path_64" class="st0" d="M104,105.4h-3.2c-0.1,0-0.3-0.1-0.3-0.3v0V94.7c0.1-1.1-0.2-2.1-0.8-3c-0.7-0.7-1.6-1.1-2.6-1
	c-1.3-0.1-2.6,0.4-3.4,1.4c-0.7,0.9-1.1,2.5-1.1,4.6v8.4c0,0.1-0.1,0.3-0.3,0.3l0,0h-3.2c-0.1,0-0.3-0.1-0.3-0.3v0V88.2
	c0-0.1,0.1-0.3,0.3-0.3l0,0h2.4c0.1,0,0.2,0.1,0.3,0.2l0.5,2.1h0.2c0.5-0.8,1.3-1.5,2.2-1.9c1-0.5,2.1-0.7,3.2-0.7
	c4.2,0,6.3,2.1,6.3,6.4v11.1C104.3,105.3,104.1,105.4,104,105.4C104,105.4,104,105.4,104,105.4"/>
<path id="Path_65" class="st0" d="M183.4,104.9c-2.7,0-4.8-0.8-6.4-2.4c-1.5-1.6-2.3-3.8-2.3-6.5c0-2.8,0.7-5.1,2.1-6.7
	c1.5-1.7,3.6-2.6,5.8-2.4c2-0.1,4,0.7,5.4,2.1c1.4,1.6,2.1,3.7,2,5.8v1.7c0,0.1-0.1,0.3-0.3,0.3c0,0,0,0,0,0h-11.1
	c-0.1,0-0.3,0.1-0.3,0.3c0,0,0,0,0,0c0,1.3,0.5,2.6,1.4,3.6c1,0.9,2.3,1.4,3.6,1.4c1,0,1.9-0.1,2.9-0.3c0.9-0.2,1.7-0.5,2.5-0.8
	c0.1-0.1,0.3,0,0.3,0.1c0,0,0,0.1,0,0.1v2.4c0,0.1-0.1,0.2-0.2,0.2c-0.8,0.4-1.7,0.7-2.6,0.8C185.6,104.8,184.5,104.9,183.4,104.9
	 M182.8,89.7c-1.1,0-2.1,0.4-2.8,1.1c-0.7,0.8-1.1,1.9-1.2,3c0,0.1,0.1,0.3,0.2,0.3c0,0,0,0,0,0h7.3c0.1,0,0.3-0.1,0.3-0.3
	c0,0,0,0,0,0c0-1.1-0.3-2.1-1-3C184.8,90,183.8,89.6,182.8,89.7"/>
<path id="Path_66" class="st0" d="M167.1,80.1c-0.1,0-0.3,0.1-0.3,0.3v8.2c0,0.1-0.1,0.3-0.3,0.3c-0.1,0-0.1,0-0.2-0.1
	c-2.7-2.6-6.9-2.5-9.5,0.2c-0.1,0.1-0.2,0.2-0.3,0.3c-1.2,1.6-1.8,3.8-1.8,6.7c0,2.8,0.6,5.1,1.8,6.6c1.2,1.6,3.1,2.5,5.1,2.4
	c2.1,0.1,4.1-0.9,5.2-2.6h0.2l0.6,2.1c0,0.1,0.1,0.2,0.3,0.2h2.4c0.1,0,0.3-0.1,0.3-0.3v-24c0-0.1-0.1-0.3-0.3-0.3H167.1z M167,96.5
	c0,1.9-0.4,3.3-1.1,4.2c-0.8,0.9-2.1,1.4-3.3,1.3c-1.2,0.1-2.4-0.5-3.1-1.5c-0.8-1.3-1.1-2.9-1-4.4c-0.1-1.6,0.3-3.1,1.1-4.5
	c0.6-1,1.8-1.6,3-1.6c1.3-0.1,2.5,0.4,3.4,1.4c0.7,0.9,1.1,2.5,1.1,4.7V96.5z"/>
<path id="Path_67" class="st0" d="M150.4,104.6H147c-0.1,0-0.3-0.1-0.3-0.3V87.4c0-0.1,0.1-0.3,0.3-0.3h3.4c0.1,0,0.3,0.1,0.3,0.3
	v16.9C150.7,104.5,150.6,104.6,150.4,104.6"/>
<path id="Path_68" class="st0" d="M150.4,85.3H147c-0.1,0-0.3-0.1-0.3-0.3v-3.2c0-0.1,0.1-0.3,0.3-0.3h3.4c0.1,0,0.3,0.1,0.3,0.3V85
	C150.7,85.2,150.6,85.3,150.4,85.3"/>
<path id="Path_69" class="st0" d="M116.2,88h-2.5c-0.1,0-0.3-0.1-0.3-0.3l0,0V75.3c0-0.3-0.2-0.5-0.5-0.5c0,0,0,0,0,0h-2.7
	c-0.3,0-0.5,0.2-0.5,0.5c0,0,0,0,0,0v12.4c0,0.1-0.1,0.3-0.3,0.3l0,0H107c-0.3,0-0.5,0.2-0.5,0.5c0,0,0,0,0,0v1.7
	c0,0.3,0.2,0.5,0.5,0.5c0,0,0,0,0,0h2.5c0.1,0,0.3,0.1,0.3,0.3c0,0,0,0,0,0v13.8c0,0.3,0.2,0.5,0.5,0.5c0,0,0,0,0,0h2.7
	c0.3,0,0.5-0.2,0.5-0.5V91c0-0.1,0.1-0.3,0.3-0.3l0,0h2.5c0.3,0,0.5-0.2,0.5-0.5c0,0,0,0,0,0v-1.7C116.7,88.2,116.5,88,116.2,88
	L116.2,88"/>
<path id="Path_70" class="st0" d="M158.3,105.7l-7.8,22.7l-5.8-23l-9.5-37.7l0,0c-0.4-1.1-1.7-1.7-2.8-1.3c-0.6,0.2-1,0.7-1.3,1.3
	l0,0l-7.2,19.2c-0.2,0.6-0.8,1.1-1.5,1.1h-3.2c-0.1,0-0.3,0.1-0.3,0.3v2.3c0,0.1,0.1,0.3,0.3,0.3h5.1c1.3,0,2.5-0.8,2.9-2.1l6-17.8
	l8.6,34.5l6.6,26.2l0,0c0.4,1.1,1.7,1.7,2.8,1.3c0.6-0.2,1-0.7,1.3-1.3l0,0l9.7-25.9L158.3,105.7z"/>
</svg>
